<svg xmlns="http://www.w3.org/2000/svg" width="561" height="190" viewBox="0 0 561 190">
  <rect width="100%" height="100%" fill="#fff"/>
  <g fill="#000"><rect x="30" y="24" width="6" height="120"/><rect x="39" y="24" width="3" height="120"/><rect x="48" y="24" width="3" height="120"/><rect x="63" y="24" width="3" height="120"/><rect x="69" y="24" width="6" height="120"/><rect x="84" y="24" width="3" height="120"/><rect x="96" y="24" width="3" height="120"/><rect x="108" y="24" width="6" height="120"/><rect x="117" y="24" width="3" height="120"/><rect x="129" y="24" width="3" height="120"/><rect x="135" y="24" width="9" height="120"/><rect x="147" y="24" width="6" height="120"/><rect x="162" y="24" width="3" height="120"/><rect x="174" y="24" width="9" height="120"/><rect x="186" y="24" width="6" height="120"/><rect x="195" y="24" width="3" height="120"/><rect x="204" y="24" width="6" height="120"/><rect x="213" y="24" width="9" height="120"/><rect x="228" y="24" width="9" height="120"/><rect x="240" y="24" width="9" height="120"/><rect x="252" y="24" width="6" height="120"/><rect x="261" y="24" width="3" height="120"/><rect x="267" y="24" width="3" height="120"/><rect x="279" y="24" width="6" height="120"/><rect x="294" y="24" width="6" height="120"/><rect x="303" y="24" width="9" height="120"/><rect x="321" y="24" width="3" height="120"/><rect x="327" y="24" width="3" height="120"/><rect x="336" y="24" width="6" height="120"/><rect x="345" y="24" width="9" height="120"/><rect x="360" y="24" width="3" height="120"/><rect x="369" y="24" width="9" height="120"/><rect x="381" y="24" width="6" height="120"/><rect x="393" y="24" width="3" height="120"/><rect x="402" y="24" width="9" height="120"/><rect x="414" y="24" width="6" height="120"/><rect x="426" y="24" width="6" height="120"/><rect x="438" y="24" width="3" height="120"/><rect x="444" y="24" width="9" height="120"/><rect x="459" y="24" width="9" height="120"/><rect x="471" y="24" width="3" height="120"/><rect x="483" y="24" width="6" height="120"/><rect x="492" y="24" width="6" height="120"/><rect x="507" y="24" width="9" height="120"/><rect x="519" y="24" width="3" height="120"/><rect x="525" y="24" width="6" height="120"/></g>
  <text x="280.5" y="162" text-anchor="middle" font-family="Arial, sans-serif" font-size="22" font-weight="700">DEMO-PAT-003</text>
  <text x="280.5" y="184" text-anchor="middle" font-family="Arial, sans-serif" font-size="14" fill="#34495e">Paciente Demo Enlace</text>
</svg>
